# xmcd CD database file
# Copyright (C) 1997 Ti Kan
# 
# Track frame offsets:
#     150
#     17512
#     50485
#     85992
#     112830
#     147937
#     167037
#     196612
#     231317
#     269537
#     292132
# 
# Disc length: 4344 seconds
# 
# Revision: 1
# Processed by: cddbd v1.4b41PL1 Copyright (c) Steve Scherf et al.
# Submitted via: DiscPlay 4.0.4
# 
DISCID=9710f60b
DTITLE=Gary Moore - Blues and Ballads # 2
DYEAR=1900
DGENRE=
TTITLE0=Spanish Guitar
TTITLE1=Parisienne Walk Ways (Live)
TTITLE2=Need Your Love So Bad
TTITLE3=All Time Low
TTITLE4=I Can't Wait Till Tomorrow
TTITLE5=Merry Go Round
TTITLE6=Empty Rooms
TTITLE7=As The Years Go Passing By
TTITLE8=Drifting
TTITLE9=Nothing's The Same
TTITLE10=The Messiah Will Come Again
EXTD=
EXTT0=
EXTT1=
EXTT2=
EXTT3=
EXTT4=
EXTT5=
EXTT6=
EXTT7=
EXTT8=
EXTT9=
EXTT10=
PLAYORDER=
